<svg xmlns="http://www.w3.org/2000/svg" viewBox="0 0 640 420" fill="none" role="img" aria-label="Life sciences quality environment">
  <defs>
    <linearGradient id="bg" x1="0" y1="0" x2="640" y2="420" gradientUnits="userSpaceOnUse">
      <stop stop-color="#f2f7fc"/>
      <stop offset="1" stop-color="#e8f2fa"/>
    </linearGradient>
    <linearGradient id="glass" x1="0" y1="0" x2="0" y2="1">
      <stop stop-color="#ffffff" stop-opacity=".95"/>
      <stop offset="1" stop-color="#e8f0f8" stop-opacity=".9"/>
    </linearGradient>
  </defs>
  <rect width="640" height="420" rx="12" fill="url(#bg)"/>
  <rect x="24" y="28" width="592" height="364" rx="8" fill="#fff" fill-opacity=".7"/>
  <rect x="48" y="52" width="220" height="140" rx="6" fill="url(#glass)" stroke="#d4e0ed" stroke-width="1.5"/>
  <rect x="60" y="64" width="196" height="116" rx="4" fill="#f0f6fc"/>
  <circle cx="120" cy="118" r="28" fill="#123a6b" fill-opacity=".1"/>
  <circle cx="120" cy="118" r="18" fill="#3d7ab5" fill-opacity=".2"/>
  <path d="M96 118h48M120 94v48" stroke="#123a6b" stroke-width="2" stroke-linecap="round" opacity=".4"/>
  <rect x="48" y="210" width="544" height="8" rx="4" fill="#d4e0ed"/>
  <rect x="48" y="218" width="544" height="130" rx="6" fill="#fff" fill-opacity=".9" stroke="#d4e0ed"/>
  <rect x="72" y="248" width="36" height="72" rx="4" fill="#e8f2fa" stroke="#c5d8ef"/>
  <rect x="78" y="240" width="24" height="12" rx="2" fill="#123a6b" fill-opacity=".15"/>
  <rect x="128" y="260" width="28" height="60" rx="14" fill="#f2f7fc" stroke="#3d7ab5" stroke-width="1.5"/>
  <ellipse cx="142" cy="260" rx="14" ry="5" fill="#3d7ab5" fill-opacity=".15"/>
  <rect x="188" y="244" width="52" height="68" rx="4" fill="#fff" stroke="#d4e0ed"/>
  <path d="M198 262h32M198 274h24M198 286h28" stroke="#3d7ab5" stroke-width="2" stroke-linecap="round" opacity=".45"/>
  <circle cx="224" cy="252" r="8" fill="#123a6b" fill-opacity=".12"/>
  <path d="M220 252l3 3 6-6" stroke="#123a6b" stroke-width="1.5" stroke-linecap="round" stroke-linejoin="round"/>
  <rect x="268" y="232" width="160" height="100" rx="6" fill="#123a6b"/>
  <rect x="278" y="242" width="140" height="72" rx="4" fill="#0a1f3d" fill-opacity=".85"/>
  <rect x="288" y="252" width="36" height="8" rx="2" fill="#3d7ab5"/>
  <rect x="288" y="268" width="52" height="28" rx="3" fill="#3d7ab5" fill-opacity=".4"/>
  <rect x="346" y="268" width="52" height="28" rx="3" fill="#c5d8ef" fill-opacity=".35"/>
  <rect x="288" y="302" width="110" height="6" rx="2" fill="#c5d8ef" fill-opacity=".3"/>
  <circle cx="520" cy="118" r="22" fill="#123a6b" fill-opacity=".12"/>
  <path d="M488 198c8-36 56-36 64 0v42H488V198z" fill="#123a6b" fill-opacity=".1"/>
  <rect x="500" y="240" width="72" height="6" rx="3" fill="#3d7ab5" fill-opacity=".3"/>
  <rect x="72" y="368" width="52" height="22" rx="4" fill="#123a6b"/>
  <text x="98" y="383" text-anchor="middle" fill="#fff" font-family="Inter,Arial,sans-serif" font-size="10" font-weight="700">QMS</text>
  <rect x="136" y="368" width="52" height="22" rx="4" fill="#3d7ab5"/>
  <text x="162" y="383" text-anchor="middle" fill="#fff" font-family="Inter,Arial,sans-serif" font-size="10" font-weight="700">DMS</text>
  <rect x="200" y="368" width="52" height="22" rx="4" fill="#0a1f3d"/>
  <text x="226" y="383" text-anchor="middle" fill="#fff" font-family="Inter,Arial,sans-serif" font-size="10" font-weight="700">LMS</text>
</svg>
